<?xml version="1.0" encoding="utf-8"?>
<!-- Generator: Adobe Illustrator 21.0.0, SVG Export Plug-In . SVG Version: 6.00 Build 0)  -->
<svg version="1.1" id="Layer_1" xmlns="http://www.w3.org/2000/svg" xmlns:xlink="http://www.w3.org/1999/xlink" x="0px" y="0px"
	 viewBox="0 0 497.2 928.7" style="enable-background:new 0 0 497.2 928.7;" xml:space="preserve">
<g>
	<circle cx="162.8" cy="689.6" r="23.4"/>
	<path d="M245.5,525.4c-43.9,0-85.2,17.1-116.2,48c-8.4,8.4-15.6,17.3-22,27.3v-0.3l-3.1,5.2c-0.2,0.3-0.3,0.6-0.6,0.8l-0.4,1
		c-0.1,0.2-0.3,0.6-0.4,0.6l-0.5,1l-0.7,0.8l-0.4,0.9c-0.1,0.1-0.2,0.3-0.3,0.5c-0.1,0.2-0.3,0.4-0.3,0.6l-0.8,1.5l-0.1,0.1
		l-0.2,0.3h-0.2l-0.1,0.3c-0.1,0.4-0.3,0.7-0.4,1l-0.3,0.7c-0.1,0.4-0.3,0.7-0.4,1l-0.5,0.8l-1.3,2.8l-0.3,0.5l-0.1,0.1
		c-0.1,0.4-0.3,0.9-0.4,1.1l-0.3,0.5l0,0.1c-0.1,0.2-0.2,0.4-0.2,0.6c-0.1,0.2-0.2,0.4-0.3,0.6l-0.3,0.8l-0.5,1l-0.8,2l-0.2,0.5
		l0,0.2c0,0.1-0.1,0.2-0.1,0.3c-0.1,0.3-0.3,0.6-0.4,0.9l-0.2,0.6c-0.1,0.2-0.2,0.4-0.2,0.6c-0.1,0.2-0.2,0.4-0.3,0.6l-0.2,0.5
		l0,0.3c-0.1,0.2-0.1,0.3-0.2,0.5c-0.1,0.2-0.1,0.3-0.2,0.6l-1,2.5c-0.1,0.3-0.1,0.5-0.2,0.7c0,0.2,0,0.3-0.1,0.4l-0.2,0.2l-0.8,2.8
		c-0.1,0.2-0.2,0.4-0.2,0.6c0,0.1-0.1,0.3-0.1,0.4l-0.7,2.1l-0.1,0.5c-0.1,0.2-0.3,0.8-0.4,1.4l-0.1,0.4c-0.2,0.5-0.3,1-0.3,1.5
		l-0.1,0.4c-2.4,9-4.1,17.9-4.9,27.4v0.1c-0.3,4.7-0.5,9.5-0.5,14.2c0,6.8,0.3,11.7,0.8,16.5v1.5l0.2,0.2c0,0.4,0,0.9,0.2,1.3v0.6
		l0,0.3c0.1,0.4,0.1,0.8,0.1,1.3l0.2,0.6v0.1c0,0.3,0,0.5,0.1,0.8c0,0.2,0.1,0.4,0.1,0.7l0.2,0.7l0.2,1v0.5l0,0.3
		c0.1,0.2,0.1,0.4,0.1,0.6c0,0.3,0.1,0.5,0.2,0.7v0.5c2.9,16.5,8.2,32.5,16,47.6l0.1,0.3h0.1c0,0.1,0.1,0.3,0.2,0.4
		c0.1,0.2,0.2,0.4,0.3,0.7l0.3,0.7c0.1,0.1,0.2,0.3,0.3,0.4c0.1,0.2,0.3,0.4,0.4,0.7l0.3,0.7l0.9,1.4l0.1,0.1
		c0.1,0.3,0.2,0.4,0.3,0.6c0.1,0.2,0.2,0.3,0.3,0.5l0.3,0.5v0.2l0.1,0.1c0.3,0.3,0.4,0.5,0.6,0.9l3,5.2v-0.3
		c6.4,10,13.7,18.9,22,27.3c31.1,31.1,72.4,48.2,116.2,48.2s85.1-17.1,116.2-48.2c31-31,48-72.3,48-116.2c0-43.9-17.1-85.2-48-116.2
		C330.7,542.5,289.5,525.4,245.5,525.4z M103.9,613.3v59.4H85.6C87.8,651.8,93.9,631.9,103.9,613.3z M103.8,766
		c-9.7-17.9-15.8-37-18.1-57h18.1V766z M398.1,740.6c-3,9-6.8,17.6-11.1,25.4v-57h18.2C403.9,720,401.5,730.6,398.1,740.6z
		 M387,613.3c4.6,8.6,8.4,17.5,11.4,26.5c3.5,10.8,5.9,21.8,7,32.9H387V613.3z M405.9,676c0.3,4,0.6,9,0.6,13.6
		c0,4.9-0.2,9.8-0.8,15.9h-22v66.6c-6.8,11.2-15,21.7-24.4,31.2c-30.5,30.4-71,47.1-113.8,47.1c-43,0-83.5-16.7-113.8-47.1
		c-9.2-9.4-17.4-20-24.4-31.4v-66.5h-22c-0.3-3-0.5-5.8-0.6-8.4c-0.1-2.6-0.2-5.1-0.2-7.5c0-4.6,0.3-9.6,0.6-13.7h22.1v-68.7
		c7-11.6,15.2-22.1,24.4-31.2c30.3-30.5,70.7-47.3,113.8-47.3c42.9,0,83.3,16.8,113.8,47.3c9.4,9.4,17.6,19.9,24.4,31.2V676H405.9z"
		/>
	<path d="M245.5,508c-48.4,0-94,18.9-128.5,53.2c-34.3,34.3-53.2,79.9-53.2,128.4c0,48.6,18.9,94.2,53.2,128.5
		c34.5,34.3,80.2,53.2,128.5,53.2c48.4,0,94-18.9,128.5-53.2c34.3-34.3,53.2-80,53.2-128.5c0-48.5-18.9-94.1-53.2-128.4
		C339.6,526.9,293.9,508,245.5,508z M368.4,812.6c-32.8,32.8-76.4,50.8-122.9,50.8c-46.5,0-90.1-18-122.9-50.8
		C89.8,779.6,71.8,736,71.8,689.6c0-46.3,18-89.9,50.8-122.9c32.9-32.8,76.6-50.8,122.9-50.8s90,18,122.9,50.8
		c32.8,32.9,50.8,76.6,50.8,122.9C419.2,736,401.2,779.6,368.4,812.6z"/>
	<circle cx="327.5" cy="695.3" r="23.4"/>
	<path d="M450.2,36c-0.2-0.1-0.4-0.2-0.8-0.3c-37-15.4-110.4-24.2-201.3-24.2c-90.9,0-164.3,8.8-201.3,24.2C46.4,35.9,46.1,36,46,36
		c-19.3,7.3-32.8,27.5-32.8,49.1v596.6c0,62.8,24.4,121.8,68.8,166.2c44.4,44.4,103.4,68.8,166.2,68.8c62.8,0,121.8-24.4,166.2-68.8
		s68.8-103.4,68.8-166.2V85.2C483.1,63.5,469.6,43.3,450.2,36z M475.1,681.8c0,60.6-23.6,117.6-66.5,160.5
		c-42.9,42.9-99.9,66.5-160.5,66.5c-60.6,0-117.6-23.6-160.5-66.5c-42.9-42.9-66.5-99.9-66.5-160.5V85.2c0-18.4,11.4-35.5,27.7-41.6
		c0.2-0.1,0.6-0.2,1.1-0.4c17.1-7.1,70.5-23.6,198.3-23.6c127.7,0,181.2,16.5,198.3,23.6c0.5,0.2,0.8,0.3,1.1,0.4
		c16.3,6.1,27.7,23.2,27.7,41.6V681.8z"/>
	<path d="M451.1,670.3L413,233.9c-2.9-42.1-21.4-81.1-52.3-110.1c-31-29.1-71.5-45.1-114-45.1c-42.5,0-82.9,16-113.9,45
		c-30.8,28.9-49.4,67.9-52.3,109.9L42.4,670.3l-0.1,0.9c-0.6,6.1-0.8,12.3-0.8,18.5c0,113.2,92.1,205.3,205.3,205.3
		C359.9,895,452,802.9,452,689.7C452,683.2,451.7,676.7,451.1,670.3L451.1,670.3z M246.7,891c-111,0-201.3-90.3-201.3-201.3
		c0-6.4,0.3-12.8,0.9-19.1l0.2-2.2h0l38-434.6c2.9-41,21-79.1,51.1-107.3c30.2-28.3,69.7-43.9,111.1-43.9c41.5,0,81,15.6,111.2,44
		c30.1,28.2,48.2,66.4,51,107.5l38.1,436.5l0,0c0.6,6.3,0.9,12.7,0.9,19.1C448,800.7,357.7,891,246.7,891z"/>
	<path d="M245.4,357.9c15.6,0,28.4-12.7,28.4-28.4V145.2c0-15.6-12.7-28.4-28.4-28.4c-15.6,0-28.4,12.7-28.4,28.4v184.3
		C217,345.2,229.8,357.9,245.4,357.9z M221,145.2c0-13.4,10.9-24.4,24.4-24.4c13.4,0,24.4,10.9,24.4,24.4v184.3
		c0,13.4-10.9,24.4-24.4,24.4c-13.4,0-24.4-10.9-24.4-24.4V145.2z"/>
	<circle cx="245.4" cy="145.9" r="17.4"/>
	<circle cx="245.4" cy="329.1" r="17.4"/>
</g>
</svg>
