<?xml version="1.0" encoding="utf-8"?>
<!-- Generator: Adobe Illustrator 21.0.0, SVG Export Plug-In . SVG Version: 6.00 Build 0)  -->
<svg version="1.1" id="Layer_1" xmlns="http://www.w3.org/2000/svg" xmlns:xlink="http://www.w3.org/1999/xlink" x="0px" y="0px"
	 viewBox="0 0 1417.3 1417.3" style="enable-background:new 0 0 1417.3 1417.3;" xml:space="preserve">
<g>
	<g id="XMLID_1_">
		<g>
			<g>
				<path d="M549.5,659.9c26.2,0,47.5,21.3,47.5,47.5s-21.3,47.5-47.5,47.5S502,733.6,502,707.4S523.2,659.9,549.5,659.9z"/>
			</g>
			<g>
				<path d="M1042.9,679.7h-45.1V540.1c-13.7-23-30.4-44.4-49.4-63.4c-61.9-61.9-144-95.9-231.1-95.9c-87.4,0-169.5,34-231.1,95.9
					c-18.5,18.6-35.2,39.9-49.4,63.4v139.5h-44.9c-0.5,8.3-1.2,18.4-1.2,27.8c0,5,0.1,10,0.4,15.3c0.3,5.3,0.7,10.9,1.2,17.1h44.7
					v135c14.1,23.3,30.7,44.7,49.4,63.8c61.6,61.6,143.7,95.6,231.1,95.6c87,0,169.1-34,231.1-95.7c19-19.4,35.6-40.7,49.4-63.4
					V739.8h44.7c1.2-12.4,1.6-22.4,1.6-32.4C1044.1,698.1,1043.4,687.9,1042.9,679.7z M953.1,471.6c62.9,62.9,97.5,146.7,97.5,235.8
					c0,89.1-34.7,173-97.5,235.8c-63.1,63.1-146.9,97.9-235.8,97.9s-172.7-34.7-235.8-97.9c-17-17-31.6-35.1-44.7-55.4v0.5
					l-6.2-10.5c-0.3-0.7-0.6-1.2-1.1-1.8l-0.3-0.3v-0.4l-0.6-1c-0.1-0.4-0.3-0.7-0.5-1.1c-0.2-0.3-0.4-0.7-0.6-1.2l-0.2-0.2
					l-1.8-2.8l-0.7-1.4c-0.3-0.6-0.5-1.1-0.8-1.4c-0.2-0.3-0.4-0.6-0.5-0.9l-0.7-1.4c-0.2-0.4-0.3-0.9-0.6-1.3
					c-0.2-0.3-0.4-0.6-0.4-0.9h-0.3l-0.3-0.6c-15.8-30.5-26.7-63-32.5-96.6v-1c-0.2-0.5-0.3-1-0.4-1.5c-0.1-0.4-0.1-0.9-0.3-1.3
					l-0.1-0.6v-1l-0.3-2.1l-0.4-1.4c0-0.4-0.1-0.9-0.2-1.3c-0.1-0.6-0.2-1.1-0.2-1.7v-0.2l-0.4-1.1c0-1,0-1.9-0.3-2.7L386,748v-1.1
					c-0.3-0.9-0.3-1.8-0.3-2.7l-0.4-0.3v-3.1c-1.1-9.7-1.7-19.7-1.7-33.4c0-9.5,0.3-19.2,1-28.8v-0.3c1.7-19.2,5-37.3,9.9-55.6
					l0.3-0.9c0-1.1,0.3-2.1,0.7-3.1l0.3-0.9c0.1-1.3,0.6-2.5,0.8-2.9l0.3-1.1l1.3-4.3c0.1-0.3,0.2-0.6,0.3-0.9
					c0.1-0.3,0.3-0.8,0.4-1.2l1.7-5.7l0.4-0.3c0.1-0.3,0.1-0.5,0.2-0.9c0.1-0.5,0.2-1,0.3-1.5l2-5.1c0.2-0.4,0.3-0.8,0.4-1.1
					c0.2-0.3,0.3-0.7,0.4-1.1l0.1-0.5l0.3-1c0.2-0.4,0.4-0.9,0.5-1.3c0.1-0.4,0.3-0.8,0.4-1.2l0.4-1.2c0.3-0.6,0.6-1.2,0.9-1.8
					c0-0.2,0.1-0.3,0.2-0.5l0.1-0.4l0.3-1l1.7-4l1.1-2l0.6-1.6c0.2-0.4,0.4-0.9,0.5-1.3c0.1-0.4,0.3-0.8,0.4-1.2l0.1-0.3l0.6-1
					c0.3-0.4,0.6-1.4,0.9-2.3l0.2-0.3l0.6-1l2.6-5.7l1.1-1.7c0.3-0.6,0.6-1.2,0.9-2.1l0.7-1.4c0.3-0.6,0.6-1.2,0.9-2.1l0.3-0.7h0.4
					l0.3-0.6l0.2-0.2l1.6-3.1c0.2-0.3,0.4-0.8,0.7-1.2c0.3-0.4,0.4-0.8,0.6-1.1l0.8-1.9l1.3-1.7l1.1-2c0.3-0.2,0.5-0.9,0.8-1.3
					l0.9-1.9c0.5-0.5,0.8-1.1,1.1-1.7l6.3-10.6v0.5c13.2-20.3,27.8-38.5,44.8-55.4c62.9-62.9,146.7-97.5,235.8-97.5
					C806.6,374,890.3,408.7,953.1,471.6z M1004.6,673h37.4c-2.2-22.5-7.1-44.8-14.2-66.8c-6-18.3-13.8-36.4-23.2-53.9V673z
					 M1041.6,746.8h-37v115.7c8.8-15.9,16.4-33.3,22.5-51.6C1034.1,790.5,1039,768.9,1041.6,746.8z M429.9,672.9V552.4
					c-20.2,37.8-32.7,78.3-37,120.5H429.9z M429.8,862.5V746.8h-36.7C397.8,787.3,410.2,826.2,429.8,862.5z"/>
			</g>
			<g>
				<path d="M978.3,446.7c69.7,69.6,108.1,162.2,108.1,260.6c0,98.6-38.4,191.3-108.1,260.9c-70,69.7-162.7,108.1-260.9,108.1
					c-98.2,0-190.9-38.3-260.9-108c-69.7-69.7-108-162.3-108-260.9c0-98.4,38.4-190.9,108-260.6c70-69.7,162.7-108.1,260.9-108.1
					C815.7,338.7,908.4,377.1,978.3,446.7z M1070.1,707.5c0-94.1-36.7-182.7-103.2-249.5C900,391.4,811.4,354.8,717.4,354.8
					S534.8,391.5,467.9,458c-66.6,66.8-103.2,155.5-103.2,249.4c0,94.1,36.6,182.7,103.3,249.6c66.5,66.6,155.1,103.2,249.5,103.2
					c94.4,0,183-36.7,249.5-103.2C1033.4,890,1070,801.5,1070.1,707.5z"/>
			</g>
			<g>
				<path d="M883.9,671.5c26.2,0,47.5,21.3,47.5,47.5c0,26.2-21.3,47.5-47.5,47.5s-47.5-21.3-47.5-47.5
					C836.4,692.8,857.7,671.5,883.9,671.5z"/>
			</g>
		</g>
		<g>
			<path d="M717.4,1230.5c-4.1,0-7.6,0-10.8-0.1c-125.1-2.5-245.3-50.1-338.4-133.9c-92.4-83.2-152.1-196.5-168.3-319.2
				c-3-22.7-4.5-45.8-4.5-68.9c0-23.8,1.6-47.7,4.8-71c16.6-122.2,76.5-235,168.8-317.7c92.9-83.4,212.9-130.7,337.7-133.2
				c3.2-0.1,6.8-0.1,10.8-0.1c139.5,0,270.6,54.3,369.2,152.9s152.9,229.7,152.9,369.2c0,139.5-54.3,270.6-152.9,369.2
				C987.9,1176.2,856.8,1230.5,717.4,1230.5z M717.4,205.3c-3.9,0-7.3,0-10.4,0.1l0,0c-120.3,2.4-235.9,48-325.4,128.4
				C292.7,413.6,234.9,522.3,218.9,640c-3.1,22.4-4.6,45.5-4.6,68.4c0,22.2,1.5,44.6,4.4,66.4c15.6,118.2,73.2,227.4,162.2,307.5
				c89.7,80.8,205.5,126.6,326.1,129c3.2,0.1,6.4,0.1,10.4,0.1c134.4,0,260.7-52.3,355.8-147.4c95-95,147.4-221.4,147.4-355.7
				c0-134.4-52.3-260.7-147.4-355.8C978.1,257.6,851.8,205.3,717.4,205.3z"/>
		</g>
	</g>
</g>
<g>
	<path d="M187.8,631.9h13.8c2.8,0,5,2.5,4.7,5.3c-3,23.3-4.5,47.1-4.5,71.3c0,23.4,1.4,46.4,4.2,69c0.3,2.8-1.8,5.3-4.7,5.3h-13.9
		c-2.4,0-4.4-1.8-4.7-4.1c-2.9-23-4.3-46.4-4.3-70.2c0-24.6,1.6-48.8,4.6-72.5C183.4,633.7,185.4,631.9,187.8,631.9z"/>
</g>
</svg>
