<?xml version="1.0" encoding="utf-8"?>
<!-- Generator: Adobe Illustrator 21.0.0, SVG Export Plug-In . SVG Version: 6.00 Build 0)  -->
<svg version="1.1" id="Layer_1" xmlns="http://www.w3.org/2000/svg" xmlns:xlink="http://www.w3.org/1999/xlink" x="0px" y="0px"
	 viewBox="0 0 1056.5 1417.3" style="enable-background:new 0 0 1056.5 1417.3;" xml:space="preserve">
<g>
	<path d="M940.5,14.3L830.3,5.7l-0.6,0.2c-5.1-0.3-10.3-0.2-15.5,0.3L594.8,27.4l-5.1,0.5l-1.9,0.3l-0.1,0.1
		c-86.1,12.9-111.5,102.6-114.6,115.2l-1.2,1.2l0.4,1c-6.5,13.9-9.9,29.3-9.9,44.9v1040.9c0,14.1,2.9,28.3,8.3,41.2l0.4,0.9
		c1.3,4.2,9.5,28.7,25.3,53.4c15.4,24,33.5,40.9,53.2,49.8c7.5,3.6,15.5,6.1,24.2,7.1l0-0.3l0,0l-0.2,1.5l240.8,25.6
		c3.3,0.3,6.6,0.5,9.9,0.5c5.3,0,10.6-0.5,15.8-1.3l90.7-1l0,0c0.7,0,1.4,0.1,2.1,0.1c14,0,27.5-3,40.1-8.7
		c11.5-5,22.1-12.1,31.5-21.2c24.3-23.6,38.2-58.8,38.2-96.7V140.7C1042.8,73.2,998.8,18.9,940.5,14.3z M1033,140.7v1141.6
		c0,35.2-12.9,67.9-35.3,89.7c-18.5,18-42.5,27.5-67.7,26.8l-59.6,0.7c7.2-3.9,13.9-8.6,20.2-14.3c25.8-23.4,40.6-59.4,40.6-98.8
		V137.2c0-39.4-14.8-75.5-40.6-98.9c-10.2-9.3-21.7-16.2-34.1-20.5l83.5,6.6c10,0.8,19.6,3.1,28.5,6.9
		C1006.8,47.8,1033,90.2,1033,140.7z M490.1,1295.3c-5.8-12.5-9-22.2-9.8-24.6l-0.4-1.2c-5.1-11.9-7.8-25.1-7.8-38.1V190.6
		c0-14.5,3.3-28.9,9.5-41.8l0.4-0.4l0.2-0.8l0.6-1.3l-0.2-0.5c12.1-21,31.7-35.7,53.7-37.6l212.4-18.4c1.8-0.2,3.5-0.2,5.3-0.2
		c15.2,0,29.8,5.7,41.5,16.5c16.1,14.7,25.3,37.4,25.3,62.1v1095.4c0,24.7-9.2,47.3-25.3,62c-13,11.9-29.7,17.6-46.8,16.1
		l-212.4-19.3C518.4,1320.5,502.1,1310.4,490.1,1295.3z M831.5,1399.9l-0.6-0.2l-1.1,0.1c-4.8,0.3-9.8,0.2-14.7-0.3l-240.8-25.6
		c-36.5-4.5-61.6-36.5-76.7-63.7c11.1,9.5,24.2,15.7,38.3,17l212.4,19.3c2,0.2,4,0.3,6,0.3c16.4,0,32-6.1,44.5-17.6
		c17.1-15.6,26.9-39.5,26.9-65.6V168c0-26.1-9.8-50-26.9-65.7c-14.1-12.9-32-19.1-50.5-17.5l-212.4,18.4
		c-18.7,1.6-35.8,11.8-48.5,27.1c8.6-23.5,29.7-65.8,73.6-84.5c8.8-3.6,18.6-6.4,29.3-7.8l0.1,1.1l224.4-21.7
		c26.5-2.6,52.3,6.1,72.5,24.5c24.8,22.5,39,57.3,39,95.3v1149.2c0,38-14.2,72.7-39,95.1c-8.7,7.8-18.3,13.9-28.7,18L831.5,1399.9z"
		/>
	<path d="M217,277.8l0,4.9L217,277.8l-54.3-1.2h-0.1c-2.1-0.2-4.2-0.3-6.4-0.1l-88,5.7C24,285,17.8,345.4,17.1,354.9
		c-2.4,7.3-3.6,15.1-3.6,23.2v647.6l-0.1-0.1l0.1,9.8c0.1,3.4,1.7,76.7,43,92.4c3.8,1.6,7.7,2.7,11.9,3.1l0-0.3l0,0l-0.1,1.5l88,6
		c0.8,0.1,1.6,0.1,2.4,0.1c4,0,8-0.7,11.8-2l48.3-3.8l0,0c4.5-0.2,8.8-1.4,12.9-3.3c0.3-0.1,0.6-0.3,0.8-0.4
		c0.2-0.1,0.5-0.2,0.7-0.3c16.9-8.1,28.7-28.4,28.7-52.4V334.1C262.1,302.6,242.3,277.9,217,277.8z M252.3,334.1v741.8
		c0,25.2-15,45.6-34.1,46.4l0,0l-30.8,2.4c9.2-10.2,14.4-24.8,14.4-40.7V337c0-17.5-6.3-33.4-17.2-43.6c-2.8-2.7-6-4.8-9.2-6.5
		l39.3,0.9l0,0.1c4.6-0.3,9.1,0.4,13.3,2C242.3,295.9,252.3,313.2,252.3,334.1z M162.6,1126.7L162.6,1126.7l-2.3,0.1
		c-1.1,0.1-2.2,0.1-3.4,0l-87.9-6c-22-2.1-33.5-23.4-39.4-44.2c5.7,6.8,12.8,11.1,20.6,11.8l68.5,5.4c0.7,0.1,1.4,0.1,2,0.1
		c6.7,0,13.1-2.6,18.6-7.7c9.6-8.9,15.4-24.3,15.4-41.2V373.1c0-16.9-5.8-32.3-15.4-41.2c-6.1-5.6-13.2-8.3-20.6-7.7l-68.5,5.3
		c-8.1,0.6-15.6,5.3-21.4,12.7c3.1-15.7,10.8-40,29.6-47.8c3.2-1.2,6.6-1.9,10.3-2.2l0.1,1.2l88-5.7c9-0.6,17.5,2.6,24.6,9.3
		c9.9,9.3,15.6,23.9,15.6,40v747c0,16.1-5.7,30.7-15.6,40c-0.5,0.5-1,0.9-1.6,1.3L162.6,1126.7z M23.9,1045.4L23.9,1045.4l-0.6-10.3
		c-0.1-1.1-0.1-2.2-0.1-3.4V378.1c0-7.2,1.1-14.2,3.3-20.7l0.3-0.8V356c0-0.3,0.1-1.1,0.2-2.1c5.4-11.2,14-18.9,23.5-19.6l68.5-5.3
		c0.5,0,1-0.1,1.6-0.1c5.5,0,10.7,2.2,15.3,6.5c8.7,8,13.8,22.1,13.8,37.7V1045c0,15.6-5.2,29.6-13.8,37.6c-5,4.7-10.9,6.9-16.9,6.4
		l-68.5-5.4c-10-0.8-18.9-9.2-24.3-21.2C25.1,1055.9,24.3,1050,23.9,1045.4z"/>
	<path d="M614,611.8c0.4,0,0.7,0,1.1,0C676,611,725.5,551.9,725.5,480c0-38.3-14.3-73.9-39.2-97.6c-20-19-45.3-28.7-71.3-27.4
		c-58.9,3-106.9,62-106.9,131.7c0,37.4,13.8,72.4,37.8,96.2C564.8,601.5,589,611.8,614,611.8z M615.2,359.8c1.5-0.1,2.9-0.1,4.4-0.1
		c23.1,0,45.5,9.2,63.3,26.2c24,22.8,37.7,57.1,37.7,94.1c0,69.3-47.4,126.2-105.6,126.9c-24.1,0.3-47.4-9.5-65.7-27.6
		c-23.1-22.8-36.4-56.6-36.4-92.7C513,419.5,558.8,362.6,615.2,359.8z"/>
</g>
</svg>
