<?xml version="1.0" encoding="utf-8"?>
<!-- Generator: Adobe Illustrator 21.0.0, SVG Export Plug-In . SVG Version: 6.00 Build 0)  -->
<svg version="1.1" id="Layer_1" xmlns="http://www.w3.org/2000/svg" xmlns:xlink="http://www.w3.org/1999/xlink" x="0px" y="0px"
	 viewBox="0 0 576.4 1417.3" style="enable-background:new 0 0 576.4 1417.3;" xml:space="preserve">
<style type="text/css">
	.st0{fill:none;}
</style>
<g>
	<path d="M468.9,1404.8H107.2c-47.1,0-78.8-36.4-78.8-90.5L16.7,103.3c0-49.9,40.6-90.5,90.5-90.5h361.7c49.9,0,90.5,40.6,90.5,90.5
		l-11.7,1211.2C547.7,1368.5,516,1404.8,468.9,1404.8z M107.2,22.9c-44.3,0-80.3,36-80.3,80.3l11.7,1211.1
		c0,55.5,34.4,80.3,68.6,80.3h361.7c34.1,0,68.6-24.8,68.6-80.3l11.7-1211.2c0-44.2-36-80.2-80.3-80.2H107.2z"/>
</g>
<g>
	<g>
		<polygon class="st0" points="192.3,357.8 222.6,341.7 222.6,325.4 162,325.4 162,341.7 		"/>
	</g>
	<g>
		<polygon class="st0" points="288.2,448.3 318.5,464.4 348.8,448.3 348.8,413.4 318.5,397.2 288.2,413.4 		"/>
	</g>
	<g>
		<polygon class="st0" points="317.2,394.9 317.2,360 287,343.9 256.7,360 256.7,394.9 287,411 		"/>
	</g>
	<g>
		<polygon class="st0" points="380.4,394.9 380.4,360 350.1,343.9 319.8,360 319.8,394.9 350.1,411 		"/>
	</g>
	<g>
		<polygon class="st0" points="162,448.3 192.3,464.4 222.6,448.3 222.6,413.4 192.3,397.2 162,413.4 		"/>
	</g>
	<g>
		<polygon class="st0" points="351.3,448.3 381.6,464.4 411.9,448.3 411.9,413.4 381.6,397.2 351.3,413.4 		"/>
	</g>
	<g>
		<polygon class="st0" points="225.1,448.3 255.4,464.4 285.7,448.3 285.7,413.4 255.4,397.2 225.1,413.4 		"/>
	</g>
	<g>
		<polygon class="st0" points="318.5,357.8 348.8,341.7 348.8,325.4 288.3,325.4 288.3,341.7 		"/>
	</g>
	<g>
		<polygon class="st0" points="254.1,394.9 254.1,360 223.9,343.9 193.6,360 193.6,394.9 223.9,411 		"/>
	</g>
	<g>
		<polygon class="st0" points="255.4,357.8 285.7,341.7 285.7,325.4 225.1,325.4 225.1,341.7 		"/>
	</g>
	<g>
		<polygon class="st0" points="256.7,467 256.7,501.9 287,518.1 317.2,501.9 317.2,467 287,450.9 		"/>
	</g>
	<g>
		<polygon class="st0" points="193.6,467 193.6,501.9 223.9,518.1 254.1,501.9 254.1,467 223.9,450.9 		"/>
	</g>
	<g>
		<polygon class="st0" points="319.8,467 319.8,501.9 350.1,518.1 380.4,501.9 380.4,467 350.1,450.9 		"/>
	</g>
	<g>
		<polygon class="st0" points="130.5,467 130.5,501.9 160.7,518.1 191,501.9 191,467 160.7,450.9 		"/>
	</g>
	<g>
		<polygon class="st0" points="382.9,467 382.9,501.9 413.2,518.1 443.5,501.9 443.5,467 413.2,450.9 		"/>
	</g>
	<g>
		<polygon class="st0" points="506.6,394.9 506.6,360 476.3,343.9 446,360 446,394.9 476.3,411 		"/>
	</g>
	<g>
		<polygon class="st0" points="414.5,448.3 444.7,464.4 475,448.3 475,413.4 444.7,397.2 414.5,413.4 		"/>
	</g>
	<g>
		<polygon class="st0" points="443.5,394.9 443.5,360 413.2,343.9 382.9,360 382.9,394.9 413.2,411 		"/>
	</g>
	<g>
		<polygon class="st0" points="129.2,357.8 159.5,341.7 159.5,325.4 98.9,325.4 98.9,341.7 		"/>
	</g>
	<g>
		<polygon class="st0" points="129.2,504.3 98.9,520.4 98.9,538.6 159.5,538.6 159.5,520.4 		"/>
	</g>
	<g>
		<polygon class="st0" points="96.4,413.4 68.5,398.6 69.1,462.8 96.4,448.3 		"/>
	</g>
	<g>
		<path class="st0" d="M69.6,506.1l0.1,7.8c0.1,13.7,11.3,24.7,25,24.7h1.7v-18.2L69.6,506.1z"/>
	</g>
	<g>
		<polygon class="st0" points="127.9,501.9 127.9,467 97.6,450.9 69.2,466 69.5,503.1 97.6,518.1 		"/>
	</g>
	<g>
		<polygon class="st0" points="192.3,504.3 162,520.4 162,538.6 222.6,538.6 222.6,520.4 		"/>
	</g>
	<g>
		<polygon class="st0" points="255.4,504.3 225.1,520.4 225.1,538.6 285.7,538.6 285.7,520.4 		"/>
	</g>
	<g>
		<polygon class="st0" points="98.9,448.3 129.2,464.4 159.5,448.3 159.5,413.4 129.2,397.2 98.9,413.4 		"/>
	</g>
	<g>
		<path class="st0" d="M96.4,341.7v-16.2H93c-13.9,0-25.1,11.3-25,25.2l0.1,6L96.4,341.7z"/>
	</g>
	<g>
		<polygon class="st0" points="381.6,357.8 411.9,341.7 411.9,325.4 351.4,325.4 351.4,341.7 		"/>
	</g>
	<g>
		<polygon class="st0" points="191,394.9 191,360 160.8,343.9 130.5,360 130.5,394.9 160.7,411 		"/>
	</g>
	<g>
		<polygon class="st0" points="127.9,394.9 127.9,360 97.6,343.9 68.1,359.6 68.5,395.5 97.6,411 		"/>
	</g>
	<g>
		<polygon class="st0" points="381.6,504.3 351.3,520.4 351.3,538.6 411.9,538.6 411.9,520.4 		"/>
	</g>
	<g>
		<polygon class="st0" points="476.3,450.9 446,467 446,501.9 476.3,518.1 506.5,502 506.6,496 506.6,467 		"/>
	</g>
	<g>
		<path class="st0" d="M477.6,538.6h3.9c13.7,0,24.8-11,25-24.7l0.1-8.9l-28.9,15.4V538.6z"/>
	</g>
	<g>
		<polygon class="st0" points="444.7,357.8 475,341.7 475,325.4 414.5,325.4 414.5,341.7 		"/>
	</g>
	<g>
		<polygon class="st0" points="444.7,504.3 414.5,520.4 414.5,538.6 475,538.6 475,520.4 		"/>
	</g>
	<g>
		<polygon class="st0" points="318.5,504.3 288.2,520.4 288.2,538.6 348.8,538.6 348.8,520.4 		"/>
	</g>
	<g>
		<polygon class="st0" points="477.6,448.3 506.9,463.9 507.5,397.4 477.6,413.4 		"/>
	</g>
	<g>
		<path class="st0" d="M507.9,357.8l0.1-7.2c0.1-13.9-11.1-25.2-25-25.2h-5.4v16.2L507.9,357.8z"/>
	</g>
</g>
<path d="M502.6,331.1c-5.2-5.3-12.2-8.2-19.6-8.2H93c-7.4,0-14.3,2.9-19.6,8.2s-8,12.2-8,19.6l1.6,163.2c0.1,15,12.5,27.3,27.5,27.3
	h386.8c15,0,27.4-12.2,27.5-27.3l1.6-163.2C510.6,343.3,507.8,336.3,502.6,331.1z M499,334.6c4.2,4.3,6.5,10,6.5,16l-0.1,5.8
	l-27.8-14.8V328h5.4C489.1,328,494.7,330.4,499,334.6z M505,395.7L476.3,411L446,394.9V360l30.3-16.1l29,15.5L505,395.7z
	 M159.5,413.4v34.9l-30.3,16.1l-30.3-16.1v-34.9l30.3-16.1L159.5,413.4z M130.5,394.9V360l30.3-16.1L191,360v34.9L160.7,411
	L130.5,394.9z M130.5,467l30.3-16.1L191,467v34.9l-30.3,16.1l-30.3-16.1V467z M162,448.3v-34.9l30.3-16.1l30.3,16.1v34.9l-30.3,16.1
	L162,448.3z M193.6,394.9V360l30.3-16.1l30.3,16.1v34.9L223.9,411L193.6,394.9z M193.6,467l30.3-16.1l30.3,16.1v34.9l-30.3,16.1
	l-30.3-16.1V467z M225.1,448.3v-34.9l30.3-16.1l30.3,16.1v34.9l-30.3,16.1L225.1,448.3z M256.7,394.9V360l30.3-16.1l30.3,16.1v34.9
	L287,411L256.7,394.9z M256.7,467l30.3-16.1l30.3,16.1v34.9L287,518.1l-30.3-16.1V467z M288.2,448.3v-34.9l30.3-16.1l30.3,16.1v34.9
	l-30.3,16.1L288.2,448.3z M319.8,394.9V360l30.3-16.1l30.3,16.1v34.9L350.1,411L319.8,394.9z M319.8,467l30.3-16.1l30.3,16.1v34.9
	l-30.3,16.1l-30.3-16.1V467z M351.3,448.3v-34.9l30.3-16.1l30.3,16.1v34.9l-30.3,16.1L351.3,448.3z M382.9,394.9V360l30.3-16.1
	l30.3,16.1v34.9L413.2,411L382.9,394.9z M382.9,467l30.3-16.1l30.3,16.1v34.9l-30.3,16.1l-30.3-16.1V467z M414.5,448.3v-34.9
	l30.3-16.1l30.3,16.1v34.9l-30.3,16.1L414.5,448.3z M475,341.7l-30.3,16.1l-30.3-16.1V328H475V341.7z M411.9,341.7l-30.3,16.1
	l-30.3-16.1V328h60.6V341.7z M348.8,341.7l-30.3,16.1l-30.3-16.1V328h60.6V341.7z M285.7,341.7l-30.3,16.1l-30.3-16.1V328h60.6
	V341.7z M222.6,341.7l-30.3,16.1L162,341.7V328h60.6V341.7z M159.5,341.7l-30.3,16.1l-30.3-16.1V328h60.6V341.7z M127.9,360v34.9
	L97.6,411l-26.6-14.2l-0.4-38.6l26.9-14.4L127.9,360z M96.4,413.4v34.9l-24.7,13.1l-0.6-61.5L96.4,413.4z M97.6,450.9l30.3,16.1
	v34.9l-30.3,16.1l-25.5-13.6l-0.4-39.8L97.6,450.9z M98.9,520.4l30.3-16.1l30.3,16.1v15.7H98.9V520.4z M162,520.4l30.3-16.1
	l30.3,16.1v15.7H162V520.4z M225.1,520.4l30.3-16.1l30.3,16.1v15.7h-60.6V520.4z M288.2,520.4l30.3-16.1l30.3,16.1v15.7h-60.6V520.4
	z M351.3,520.4l30.3-16.1l30.3,16.1v15.7h-60.6V520.4z M414.5,520.4l30.3-16.1l30.3,16.1v15.7h-60.6V520.4z M446,501.9V467
	l30.3-16.1l28,14.9l-0.4,37.5l-27.7,14.7L446,501.9z M477.6,448.3v-34.9l27.4-14.6l-0.6,63.8L477.6,448.3z M77.1,334.6
	c4.2-4.3,9.9-6.6,15.9-6.6h3.4v13.7l-25.7,13.7l0-4.7C70.5,344.6,72.8,338.9,77.1,334.6z M72.2,513.9l-0.1-6.4l24.2,12.9v15.7h-1.7
	C82.4,536.1,72.3,526.1,72.2,513.9z M481.4,536.1h-3.9v-15.7l26.4-14l-0.1,7.5C503.7,526.1,493.7,536.1,481.4,536.1z"/>
<g>
</g>
</svg>
