<?xml version="1.0" encoding="utf-8"?>
<!-- Generator: Adobe Illustrator 21.0.0, SVG Export Plug-In . SVG Version: 6.00 Build 0)  -->
<svg version="1.1" id="Layer_1" xmlns="http://www.w3.org/2000/svg" xmlns:xlink="http://www.w3.org/1999/xlink" x="0px" y="0px"
	 viewBox="0 0 449.5 1417.3" style="enable-background:new 0 0 449.5 1417.3;" xml:space="preserve" xmlns:pulse="-" xmlns:onclick="-">
<g>
	<path d="M411.4,1417.3H38.2c-21,0-38.2-17.1-38.2-38.2V38.2C0,17.1,17.1,0,38.2,0h373.2c21,0,38.2,17.1,38.2,38.2v1341
		C449.5,1400.2,432.4,1417.3,411.4,1417.3z M38.2,9.4C22.3,9.4,9.4,22.3,9.4,38.2v1341c0,15.9,12.9,28.8,28.8,28.8h373.2
		c15.9,0,28.8-12.9,28.8-28.8V38.2c0-15.9-12.9-28.8-28.8-28.8H38.2z"/>
</g>
<g>
	<path d="M411.4,1393.1H38.2c-7.7,0-14-6.3-14-14V38.2c0-7.7,6.3-14,14-14h373.2c7.7,0,14,6.3,14,14v1341
		C425.3,1386.9,419.1,1393.1,411.4,1393.1z M38.2,28.9c-5.1,0-9.3,4.2-9.3,9.3v1341c0,5.1,4.2,9.3,9.3,9.3h373.2
		c5.1,0,9.3-4.2,9.3-9.3V38.2c0-5.1-4.2-9.3-9.3-9.3H38.2z"/>
</g>
<g>
	<path d="M220.1,196.5c-12.9,0-23.4-10.5-23.4-23.4c0-12.9,10.5-23.4,23.4-23.4c12.9,0,23.4,10.5,23.4,23.4
		C243.5,186,233,196.5,220.1,196.5z M220.1,154.3c-10.3,0-18.7,8.4-18.7,18.7s8.4,18.7,18.7,18.7c10.3,0,18.7-8.4,18.7-18.7
		S230.4,154.3,220.1,154.3z"/>
</g>
<g>
	<path d="M133.9,448c-31.9,0-57.9-26-57.9-57.9c0-31.9,26-57.9,57.9-57.9c31.9,0,57.9,26,57.9,57.9C191.9,422.1,165.9,448,133.9,448
		z M133.9,336.9c-29.4,0-53.3,23.9-53.3,53.3c0,29.4,23.9,53.3,53.3,53.3c29.4,0,53.3-23.9,53.3-53.3
		C187.2,360.8,163.3,336.9,133.9,336.9z"/>
</g>
<g>
	<path d="M305.9,448c-31.9,0-57.9-26-57.9-57.9c0-31.9,26-57.9,57.9-57.9c31.9,0,57.9,26,57.9,57.9C363.9,422.1,337.9,448,305.9,448
		z M305.9,336.9c-29.4,0-53.3,23.9-53.3,53.3c0,29.4,23.9,53.3,53.3,53.3c29.4,0,53.3-23.9,53.3-53.3
		C359.2,360.8,335.3,336.9,305.9,336.9z"/>
</g>
<g>
	<path d="M224,403.9h-3.8v-24.2c-0.9,0.9-2.1,1.7-3.6,2.6c-1.5,0.9-2.8,1.5-4,2v-3.7c2.1-1,4-2.2,5.6-3.6c1.6-1.4,2.7-2.8,3.4-4.1
		h2.4V403.9z"/>
</g>
<g>
	<path d="M103.6,298.6c0-5.1,1.4-9.2,4.1-12.1c2.8-2.9,6.3-4.4,10.7-4.4c2.9,0,5.4,0.7,7.7,2c2.3,1.4,4,3.3,5.2,5.7
		c1.2,2.4,1.8,5.2,1.8,8.3c0,3.1-0.6,5.9-1.9,8.4c-1.3,2.5-3.1,4.4-5.4,5.6c-2.3,1.3-4.8,1.9-7.5,1.9c-2.9,0-5.5-0.7-7.8-2.1
		c-2.3-1.4-4-3.3-5.2-5.8C104.2,303.9,103.6,301.4,103.6,298.6z M107.8,298.7c0,3.7,1,6.7,3,8.8s4.5,3.2,7.5,3.2
		c3.1,0,5.6-1.1,7.6-3.2c2-2.2,3-5.2,3-9.2c0-2.5-0.4-4.7-1.3-6.6c-0.9-1.9-2.1-3.3-3.7-4.4c-1.6-1-3.5-1.6-5.5-1.6
		c-2.9,0-5.4,1-7.5,3C108.9,290.7,107.8,294.1,107.8,298.7z"/>
	<path d="M138.4,313.7v-30.9h4.2l16.2,24.3v-24.3h3.9v30.9h-4.2l-16.2-24.3v24.3H138.4z"/>
</g>
<g>
	<path d="M264.8,298.6c0-5.1,1.4-9.2,4.1-12.1c2.8-2.9,6.3-4.4,10.7-4.4c2.9,0,5.4,0.7,7.7,2c2.3,1.4,4,3.3,5.2,5.7
		c1.2,2.4,1.8,5.2,1.8,8.3c0,3.1-0.6,5.9-1.9,8.4c-1.3,2.5-3.1,4.4-5.4,5.6c-2.3,1.3-4.8,1.9-7.5,1.9c-2.9,0-5.5-0.7-7.8-2.1
		c-2.3-1.4-4-3.3-5.2-5.8C265.4,303.9,264.8,301.4,264.8,298.6z M269,298.7c0,3.7,1,6.7,3,8.8c2,2.1,4.5,3.2,7.5,3.2
		c3.1,0,5.6-1.1,7.6-3.2c2-2.2,3-5.2,3-9.2c0-2.5-0.4-4.7-1.3-6.6c-0.9-1.9-2.1-3.3-3.7-4.4c-1.6-1-3.5-1.6-5.5-1.6
		c-2.9,0-5.4,1-7.5,3C270.1,290.7,269,294.1,269,298.7z"/>
	<path d="M299.9,313.7v-30.9h20.9v3.7H304v9.6h14.5v3.6H304v14.1H299.9z"/>
	<path d="M326.3,313.7v-30.9h20.9v3.7h-16.8v9.6h14.5v3.6h-14.5v14.1H326.3z"/>
</g>
<g>
	<path d="M133.9,588.8c-31.9,0-57.9-26-57.9-57.9c0-31.9,26-57.9,57.9-57.9c31.9,0,57.9,26,57.9,57.9
		C191.9,562.9,165.9,588.8,133.9,588.8z M133.9,477.7c-29.4,0-53.3,23.9-53.3,53.3c0,29.4,23.9,53.3,53.3,53.3
		c29.4,0,53.3-23.9,53.3-53.3C187.2,501.5,163.3,477.7,133.9,477.7z"/>
</g>
<g>
	<path d="M305.9,588.8c-31.9,0-57.9-26-57.9-57.9c0-31.9,26-57.9,57.9-57.9c31.9,0,57.9,26,57.9,57.9
		C363.9,562.9,337.9,588.8,305.9,588.8z M305.9,477.7c-29.4,0-53.3,23.9-53.3,53.3c0,29.4,23.9,53.3,53.3,53.3
		c29.4,0,53.3-23.9,53.3-53.3C359.2,501.5,335.3,477.7,305.9,477.7z"/>
</g>
<g>
	<path d="M229.7,541v3.7h-20.4c0-0.9,0.1-1.8,0.4-2.6c0.5-1.4,1.4-2.8,2.5-4.1c1.1-1.4,2.8-2.9,5-4.7c3.4-2.8,5.6-4.9,6.8-6.6
		c1.2-1.6,1.8-3.1,1.8-4.6c0-1.5-0.5-2.8-1.6-3.8c-1.1-1-2.5-1.6-4.2-1.6c-1.8,0-3.3,0.5-4.4,1.6c-1.1,1.1-1.7,2.6-1.7,4.6l-3.9-0.4
		c0.3-2.9,1.3-5.1,3-6.7c1.7-1.5,4.1-2.3,7-2.3c3,0,5.3,0.8,7,2.5c1.7,1.6,2.6,3.7,2.6,6.1c0,1.2-0.3,2.5-0.8,3.7
		c-0.5,1.2-1.3,2.5-2.5,3.8c-1.2,1.3-3.1,3.1-5.9,5.4c-2.3,1.9-3.7,3.2-4.4,3.9c-0.6,0.7-1.2,1.4-1.6,2.1H229.7z"/>
</g>
<g>
	<path d="M133.9,729.6c-31.9,0-57.9-26-57.9-57.9c0-31.9,26-57.9,57.9-57.9c31.9,0,57.9,26,57.9,57.9
		C191.9,703.6,165.9,729.6,133.9,729.6z M133.9,618.4c-29.4,0-53.3,23.9-53.3,53.3c0,29.4,23.9,53.3,53.3,53.3
		c29.4,0,53.3-23.9,53.3-53.3C187.2,642.3,163.3,618.4,133.9,618.4z"/>
</g>
<g>
	<path d="M305.9,729.6c-31.9,0-57.9-26-57.9-57.9c0-31.9,26-57.9,57.9-57.9c31.9,0,57.9,26,57.9,57.9
		C363.9,703.6,337.9,729.6,305.9,729.6z M305.9,618.4c-29.4,0-53.3,23.9-53.3,53.3c0,29.4,23.9,53.3,53.3,53.3
		c29.4,0,53.3-23.9,53.3-53.3C359.2,642.3,335.3,618.4,305.9,618.4z"/>
</g>
<g>
	<path d="M209.7,677.3l3.8-0.5c0.4,2.2,1.2,3.7,2.2,4.7c1,0.9,2.3,1.4,3.8,1.4c1.8,0,3.3-0.6,4.5-1.9c1.2-1.2,1.8-2.8,1.8-4.6
		c0-1.7-0.6-3.2-1.7-4.3c-1.1-1.1-2.6-1.7-4.3-1.7c-0.7,0-1.6,0.1-2.7,0.4l0.4-3.3c0.3,0,0.5,0,0.6,0c1.6,0,3.1-0.4,4.4-1.3
		c1.3-0.8,1.9-2.1,1.9-3.9c0-1.4-0.5-2.5-1.4-3.5c-0.9-0.9-2.2-1.4-3.7-1.4c-1.5,0-2.7,0.5-3.7,1.4c-1,0.9-1.6,2.3-1.9,4.2l-3.8-0.7
		c0.5-2.5,1.5-4.5,3.2-5.9c1.6-1.4,3.7-2.1,6.1-2.1c1.7,0,3.2,0.4,4.7,1.1c1.4,0.7,2.5,1.7,3.3,3c0.8,1.3,1.1,2.6,1.1,4
		c0,1.3-0.4,2.6-1.1,3.7c-0.7,1.1-1.8,2-3.2,2.6c1.8,0.4,3.2,1.3,4.3,2.6c1,1.3,1.5,3,1.5,5c0,2.7-1,5-3,6.9c-2,1.9-4.5,2.8-7.5,2.8
		c-2.7,0-5-0.8-6.8-2.4C211,681.9,210,679.8,209.7,677.3z"/>
</g>
<g>
	<path d="M133.9,870.4c-31.9,0-57.9-26-57.9-57.9c0-31.9,26-57.9,57.9-57.9c31.9,0,57.9,26,57.9,57.9
		C191.9,844.4,165.9,870.4,133.9,870.4z M133.9,759.2c-29.4,0-53.3,23.9-53.3,53.3c0,29.4,23.9,53.3,53.3,53.3
		c29.4,0,53.3-23.9,53.3-53.3C187.2,783.1,163.3,759.2,133.9,759.2z"/>
</g>
<g>
	<path d="M305.9,870.4c-31.9,0-57.9-26-57.9-57.9c0-31.9,26-57.9,57.9-57.9c31.9,0,57.9,26,57.9,57.9
		C363.9,844.4,337.9,870.4,305.9,870.4z M305.9,759.2c-29.4,0-53.3,23.9-53.3,53.3c0,29.4,23.9,53.3,53.3,53.3
		c29.4,0,53.3-23.9,53.3-53.3C359.2,783.1,335.3,759.2,305.9,759.2z"/>
</g>
<g>
	<path d="M225.7,814.1v-3.6l13.1,0v11.5c-2,1.6-4.1,2.8-6.2,3.6c-2.1,0.8-4.3,1.2-6.6,1.2c-3,0-5.8-0.7-8.3-2
		c-2.5-1.3-4.4-3.2-5.6-5.6c-1.3-2.5-1.9-5.2-1.9-8.3c0-3,0.6-5.8,1.9-8.4c1.3-2.6,3.1-4.5,5.4-5.8c2.4-1.3,5.1-1.9,8.2-1.9
		c2.2,0,4.3,0.4,6.1,1.1c1.8,0.7,3.2,1.7,4.3,3c1,1.3,1.8,3,2.3,5.1l-3.7,1c-0.5-1.6-1-2.8-1.7-3.7c-0.7-0.9-1.7-1.6-3-2.2
		c-1.3-0.5-2.7-0.8-4.3-0.8c-1.9,0-3.5,0.3-4.9,0.9c-1.4,0.6-2.5,1.3-3.3,2.2c-0.8,0.9-1.5,1.9-2,3.1c-0.8,1.9-1.2,4-1.2,6.2
		c0,2.8,0.5,5.1,1.4,6.9c0.9,1.9,2.3,3.2,4.1,4.1c1.8,0.9,3.7,1.4,5.8,1.4c1.8,0,3.5-0.3,5.2-1c1.7-0.7,3-1.4,3.8-2.2v-5.8H225.7z"
		/>
</g>
<circle cx="133.9" cy="812.5" r="51.1"/>
<circle cx="305.9" cy="812.5" r="51.1"/>
</svg>
